{
  "accessors": [
    {
      "bufferView": 2,
      "componentType": 5126,
      "count": 19072,
      "max": [
        0.2446189969778061,
        1.0673580169677734,
        1.0673580169677734
      ],
      "min": [
        -1.0590410232543945,
        -1.0673580169677734,
        -1.0673580169677734
      ],
      "type": "VEC3"
    },
    {
      "bufferView": 2,
      "byteOffset": 228864,
      "componentType": 5126,
      "count": 19072,
      "max": [
        1.0,
        1.0,
        1.0
      ],
      "min": [
        -1.0,
        -1.0,
        -1.0
      ],
      "type": "VEC3"
    },
    {
      "bufferView": 1,
      "componentType": 5126,
      "count": 19072,
      "max": [
        0.0,
        0.0
      ],
      "min": [
        0.0,
        0.0
      ],
      "type": "VEC2"
    },
    {
      "bufferView": 0,
      "componentType": 5125,
      "count": 113664,
      "type": "SCALAR"
    },
    {
      "bufferView": 2,
      "byteOffset": 457728,
      "componentType": 5126,
      "count": 8064,
      "max": [
        0.22303399443626404,
        1.3169770240783691,
        1.3169770240783691
      ],
      "min": [
        -1.0345779657363892,
        -1.3169770240783691,
        -1.3169770240783691
      ],
      "type": "VEC3"
    },
    {
      "bufferView": 2,
      "byteOffset": 554496,
      "componentType": 5126,
      "count": 8064,
      "max": [
        1.0,
        0.9999998807907104,
        0.9999998807907104
      ],
      "min": [
        -1.0,
        -0.9999998807907104,
        -0.9999998807907104
      ],
      "type": "VEC3"
    },
    {
      "bufferView": 1,
      "byteOffset": 152576,
      "componentType": 5126,
      "count": 8064,
      "max": [
        0.9942070245742798,
        0.9942070245742798
      ],
      "min": [
        0.005793999880552292,
        0.005793000105768442
      ],
      "type": "VEC2"
    },
    {
      "bufferView": 0,
      "byteOffset": 454656,
      "componentType": 5125,
      "count": 46080,
      "type": "SCALAR"
    },
    {
      "bufferView": 2,
      "byteOffset": 651264,
      "componentType": 5126,
      "count": 33390,
      "max": [
        -0.14693400263786316,
        0.6596959829330444,
        0.6596959829330444
      ],
      "min": [
        -0.5205429792404175,
        -0.6596959829330444,
        -0.6596959829330444
      ],
      "type": "VEC3"
    },
    {
      "bufferView": 2,
      "byteOffset": 1051944,
      "componentType": 5126,
      "count": 33390,
      "max": [
        1.0,
        1.0,
        1.0
      ],
      "min": [
        -1.0,
        -1.0,
        -1.0
      ],
      "type": "VEC3"
    },
    {
      "bufferView": 1,
      "byteOffset": 217088,
      "componentType": 5126,
      "count": 33390,
      "max": [
        0.9757059812545776,
        0.9757059812545776
      ],
      "min": [
        0.0,
        0.0
      ],
      "type": "VEC2"
    },
    {
      "bufferView": 0,
      "byteOffset": 638976,
      "componentType": 5125,
      "count": 167424,
      "type": "SCALAR"
    },
    {
      "bufferView": 2,
      "byteOffset": 1452624,
      "componentType": 5126,
      "count": 24330,
      "max": [
        0.05384499952197075,
        0.3022100031375885,
        0.3148820102214813
      ],
      "min": [
        -0.14324499666690826,
        -0.3022100031375885,
        -0.2654759883880615
      ],
      "type": "VEC3"
    },
    {
      "bufferView": 2,
      "byteOffset": 1744584,
      "componentType": 5126,
      "count": 24330,
      "max": [
        1.0,
        1.0,
        1.0
      ],
      "min": [
        -1.0,
        -1.0,
        -1.0
      ],
      "type": "VEC3"
    },
    {
      "bufferView": 1,
      "byteOffset": 484208,
      "componentType": 5126,
      "count": 24330,
      "max": [
        0.0,
        0.0
      ],
      "min": [
        0.0,
        0.0
      ],
      "type": "VEC2"
    },
    {
      "bufferView": 0,
      "byteOffset": 1308672,
      "componentType": 5125,
      "count": 145920,
      "type": "SCALAR"
    },
    {
      "bufferView": 2,
      "byteOffset": 2036544,
      "componentType": 5126,
      "count": 65532,
      "max": [
        0.03114200010895729,
        0.9223899841308594,
        0.8814989924430847
      ],
      "min": [
        -0.05038699880242348,
        0.2498590052127838,
        -0.4329969882965088
      ],
      "type": "VEC3"
    },
    {
      "bufferView": 2,
      "byteOffset": 2822928,
      "componentType": 5126,
      "count": 65532,
      "max": [
        1.0,
        1.0,
        0.9999998807907104
      ],
      "min": [
        -1.0,
        -1.0,
        -0.9999998807907104
      ],
      "type": "VEC3"
    },
    {
      "bufferView": 1,
      "byteOffset": 678848,
      "componentType": 5126,
      "count": 65532,
      "max": [
        0.0,
        0.0
      ],
      "min": [
        0.0,
        0.0
      ],
      "type": "VEC2"
    },
    {
      "bufferView": 0,
      "byteOffset": 1892352,
      "componentType": 5125,
      "count": 391383,
      "type": "SCALAR"
    },
    {
      "bufferView": 2,
      "byteOffset": 3609312,
      "componentType": 5126,
      "count": 65532,
      "max": [
        0.03114200010895729,
        0.8282089829444885,
        0.6557289958000183
      ],
      "min": [
        -0.05038699880242348,
        -0.9223899841308594,
        -0.913116991519928
      ],
      "type": "VEC3"
    },
    {
      "bufferView": 2,
      "byteOffset": 4395696,
      "componentType": 5126,
      "count": 65532,
      "max": [
        1.0,
        1.0,
        0.9999998807907104
      ],
      "min": [
        -1.0,
        -1.0,
        -0.9999998807907104
      ],
      "type": "VEC3"
    },
    {
      "bufferView": 1,
      "byteOffset": 1203104,
      "componentType": 5126,
      "count": 65532,
      "max": [
        0.0,
        0.0
      ],
      "min": [
        0.0,
        0.0
      ],
      "type": "VEC2"
    },
    {
      "bufferView": 0,
      "byteOffset": 3457884,
      "componentType": 5125,
      "count": 387993,
      "type": "SCALAR"
    },
    {
      "bufferView": 2,
      "byteOffset": 5182080,
      "componentType": 5126,
      "count": 65532,
      "max": [
        0.03114200010895729,
        0.1687989979982376,
        0.9223889708518982
      ],
      "min": [
        -0.05038699880242348,
        -0.9218680262565613,
        -0.6622750163078308
      ],
      "type": "VEC3"
    },
    {
      "bufferView": 2,
      "byteOffset": 5968464,
      "componentType": 5126,
      "count": 65532,
      "max": [
        1.0,
        0.9999998807907104,
        1.0
      ],
      "min": [
        -1.0,
        -0.9999998807907104,
        -1.0
      ],
      "type": "VEC3"
    },
    {
      "bufferView": 1,
      "byteOffset": 1727360,
      "componentType": 5126,
      "count": 65532,
      "max": [
        0.0,
        0.0
      ],
      "min": [
        0.0,
        0.0
      ],
      "type": "VEC2"
    },
    {
      "bufferView": 0,
      "byteOffset": 5009856,
      "componentType": 5125,
      "count": 388491,
      "type": "SCALAR"
    },
    {
      "bufferView": 2,
      "byteOffset": 6754848,
      "componentType": 5126,
      "count": 30638,
      "max": [
        0.03114200010895729,
        0.1687989979982376,
        -0.6066280007362366
      ],
      "min": [
        -0.05038699880242348,
        -0.6622740030288696,
        -0.9223899841308594
      ],
      "type": "VEC3"
    },
    {
      "bufferView": 2,
      "byteOffset": 7122504,
      "componentType": 5126,
      "count": 30638,
      "max": [
        1.0,
        0.9999998807907104,
        1.0
      ],
      "min": [
        -1.0,
        -0.9999998807907104,
        -1.0
      ],
      "type": "VEC3"
    },
    {
      "bufferView": 1,
      "byteOffset": 2251616,
      "componentType": 5126,
      "count": 30638,
      "max": [
        0.0,
        0.0
      ],
      "min": [
        0.0,
        0.0
      ],
      "type": "VEC2"
    },
    {
      "bufferView": 0,
      "byteOffset": 6563820,
      "componentType": 5125,
      "count": 179973,
      "type": "SCALAR"
    },
    {
      "bufferView": 2,
      "byteOffset": 7490160,
      "componentType": 5126,
      "count": 2689,
      "max": [
        -0.0,
        0.3932409882545471,
        0.33944499492645264
      ],
      "min": [
        -0.30674800276756287,
        -0.33944499492645264,
        -0.4982739984989166
      ],
      "type": "VEC3"
    },
    {
      "bufferView": 2,
      "byteOffset": 7522428,
      "componentType": 5126,
      "count": 2689,
      "max": [
        1.0,
        1.0,
        1.0
      ],
      "min": [
        0.0,
        -1.0,
        -1.0
      ],
      "type": "VEC3"
    },
    {
      "bufferView": 1,
      "byteOffset": 2496720,
      "componentType": 5126,
      "count": 2689,
      "max": [
        0.9880099892616272,
        0.2422109991312027
      ],
      "min": [
        0.014746000058948994,
        0.011989999562501907
      ],
      "type": "VEC2"
    },
    {
      "bufferView": 0,
      "byteOffset": 7283712,
      "componentType": 5125,
      "count": 14688,
      "type": "SCALAR"
    },
    {
      "bufferView": 2,
      "byteOffset": 7554696,
      "componentType": 5126,
      "count": 65532,
      "max": [
        -0.0,
        0.8385120034217834,
        0.8423519730567932
      ],
      "min": [
        -0.2520520091056824,
        -0.8581740260124207,
        -0.8423529863357544
      ],
      "type": "VEC3"
    },
    {
      "bufferView": 2,
      "byteOffset": 8341080,
      "componentType": 5126,
      "count": 65532,
      "max": [
        1.0,
        1.0,
        1.0
      ],
      "min": [
        0.0,
        -1.0,
        -1.0
      ],
      "type": "VEC3"
    },
    {
      "bufferView": 1,
      "byteOffset": 2518232,
      "componentType": 5126,
      "count": 65532,
      "max": [
        0.9455050230026245,
        0.9475449919700623
      ],
      "min": [
        0.04404899850487709,
        0.05245500057935715
      ],
      "type": "VEC2"
    },
    {
      "bufferView": 0,
      "byteOffset": 7342464,
      "componentType": 5125,
      "count": 365943,
      "type": "SCALAR"
    },
    {
      "bufferView": 2,
      "byteOffset": 9127464,
      "componentType": 5126,
      "count": 64366,
      "max": [
        -0.0,
        0.8614829778671265,
        0.8614330291748047
      ],
      "min": [
        -0.13739100098609924,
        -0.8614839911460876,
        -0.8614339828491211
      ],
      "type": "VEC3"
    },
    {
      "bufferView": 2,
      "byteOffset": 9899856,
      "componentType": 5126,
      "count": 64366,
      "max": [
        1.0,
        1.0,
        1.0
      ],
      "min": [
        -0.0007000445621088147,
        -1.0,
        -1.0
      ],
      "type": "VEC3"
    },
    {
      "bufferView": 1,
      "byteOffset": 3042488,
      "componentType": 5126,
      "count": 64366,
      "max": [
        0.9578869938850403,
        0.957988977432251
      ],
      "min": [
        0.04211299866437912,
        0.04201100021600723
      ],
      "type": "VEC2"
    },
    {
      "bufferView": 0,
      "byteOffset": 8806236,
      "componentType": 5125,
      "count": 356361,
      "type": "SCALAR"
    }
  ],
  "asset": {
    "extras": {
      "author": "blakebella (https://sketchfab.com/blakebella)",
      "license": "CC-BY-4.0 (http://creativecommons.org/licenses/by/4.0/)",
      "source": "https://sketchfab.com/3d-models/rotiform-dab-48ff08bbf17b43b4abbc2ee9113be954",
      "title": "Rotiform DAB"
    },
    "generator": "Sketchfab-13.83.0",
    "version": "2.0"
  },
  "bufferViews": [
    {
      "buffer": 0,
      "byteLength": 10231680,
      "name": "floatBufferViews",
      "target": 34963
    },
    {
      "buffer": 0,
      "byteLength": 3557416,
      "byteOffset": 10231680,
      "byteStride": 8,
      "name": "floatBufferViews",
      "target": 34962
    },
    {
      "buffer": 0,
      "byteLength": 10672248,
      "byteOffset": 13789096,
      "byteStride": 12,
      "name": "floatBufferViews",
      "target": 34962
    }
  ],
  "buffers": [
    {
      "byteLength": 24461344,
      "uri": "scene.bin"
    }
  ],
  "extensionsUsed": [
    "KHR_materials_clearcoat"
  ],
  "images": [
    {
      "uri": "textures/lugs_baseColor.png"
    },
    {
      "uri": "textures/rims_baseColor.png"
    },
    {
      "uri": "textures/rotor_baseColor.png"
    },
    {
      "uri": "textures/spoke_baseColor.png"
    },
    {
      "uri": "textures/tire_baseColor.png"
    }
  ],
  "materials": [
    {
      "doubleSided": true,
      "extensions": {
        "KHR_materials_clearcoat": {
          "clearcoatFactor": 1.0,
          "clearcoatRoughnessFactor": 0.04
        }
      },
      "name": "lugs",
      "pbrMetallicRoughness": {
        "baseColorTexture": {
          "index": 0
        },
        "roughnessFactor": 0.25790250027428663
      }
    },
    {
      "doubleSided": true,
      "extensions": {
        "KHR_materials_clearcoat": {
          "clearcoatFactor": 0.5,
          "clearcoatRoughnessFactor": 0.04
        }
      },
      "name": "rims",
      "pbrMetallicRoughness": {
        "baseColorTexture": {
          "index": 1
        },
        "roughnessFactor": 0.30000000000000004
      }
    },
    {
      "doubleSided": true,
      "name": "rotor",
      "pbrMetallicRoughness": {
        "baseColorTexture": {
          "index": 2
        },
        "metallicFactor": 0.7542880130682302,
        "roughnessFactor": 0.2152357035754776
      }
    },
    {
      "doubleSided": true,
      "extensions": {
        "KHR_materials_clearcoat": {
          "clearcoatFactor": 0.5,
          "clearcoatRoughnessFactor": 0.04
        }
      },
      "name": "spoke",
      "pbrMetallicRoughness": {
        "baseColorTexture": {
          "index": 3
        },
        "roughnessFactor": 0.30000000000000004
      }
    },
    {
      "doubleSided": true,
      "name": "tire",
      "pbrMetallicRoughness": {
        "baseColorTexture": {
          "index": 4
        },
        "roughnessFactor": 0.5043824895466348
      }
    }
  ],
  "meshes": [
    {
      "name": "Object_0",
      "primitives": [
        {
          "attributes": {
            "NORMAL": 1,
            "POSITION": 0,
            "TEXCOORD_0": 2
          },
          "indices": 3,
          "material": 1,
          "mode": 4
        }
      ]
    },
    {
      "name": "Object_1",
      "primitives": [
        {
          "attributes": {
            "NORMAL": 5,
            "POSITION": 4,
            "TEXCOORD_0": 6
          },
          "indices": 7,
          "material": 4,
          "mode": 4
        }
      ]
    },
    {
      "name": "Object_2",
      "primitives": [
        {
          "attributes": {
            "NORMAL": 9,
            "POSITION": 8,
            "TEXCOORD_0": 10
          },
          "indices": 11,
          "material": 2,
          "mode": 4
        }
      ]
    },
    {
      "name": "Object_3",
      "primitives": [
        {
          "attributes": {
            "NORMAL": 13,
            "POSITION": 12,
            "TEXCOORD_0": 14
          },
          "indices": 15,
          "material": 0,
          "mode": 4
        }
      ]
    },
    {
      "name": "Object_4",
      "primitives": [
        {
          "attributes": {
            "NORMAL": 17,
            "POSITION": 16,
            "TEXCOORD_0": 18
          },
          "indices": 19,
          "material": 0,
          "mode": 4
        }
      ]
    },
    {
      "name": "Object_5",
      "primitives": [
        {
          "attributes": {
            "NORMAL": 21,
            "POSITION": 20,
            "TEXCOORD_0": 22
          },
          "indices": 23,
          "material": 0,
          "mode": 4
        }
      ]
    },
    {
      "name": "Object_6",
      "primitives": [
        {
          "attributes": {
            "NORMAL": 25,
            "POSITION": 24,
            "TEXCOORD_0": 26
          },
          "indices": 27,
          "material": 0,
          "mode": 4
        }
      ]
    },
    {
      "name": "Object_7",
      "primitives": [
        {
          "attributes": {
            "NORMAL": 29,
            "POSITION": 28,
            "TEXCOORD_0": 30
          },
          "indices": 31,
          "material": 0,
          "mode": 4
        }
      ]
    },
    {
      "name": "Object_8",
      "primitives": [
        {
          "attributes": {
            "NORMAL": 33,
            "POSITION": 32,
            "TEXCOORD_0": 34
          },
          "indices": 35,
          "material": 3,
          "mode": 4
        }
      ]
    },
    {
      "name": "Object_9",
      "primitives": [
        {
          "attributes": {
            "NORMAL": 37,
            "POSITION": 36,
            "TEXCOORD_0": 38
          },
          "indices": 39,
          "material": 3,
          "mode": 4
        }
      ]
    },
    {
      "name": "Object_10",
      "primitives": [
        {
          "attributes": {
            "NORMAL": 41,
            "POSITION": 40,
            "TEXCOORD_0": 42
          },
          "indices": 43,
          "material": 3,
          "mode": 4
        }
      ]
    }
  ],
  "nodes": [
    {
      "children": [
        1
      ],
      "matrix": [
        0.2631579041481018,
        0.0,
        0.0,
        0.0,
        0.0,
        5.843279285946452e-17,
        -0.2631579041481018,
        0.0,
        0.0,
        0.2631579041481018,
        5.843279285946452e-17,
        0.0,
        0.0,
        0.0,
        0.0,
        1.0
      ],
      "name": "Sketchfab_model"
    },
    {
      "children": [
        2,
        3,
        4,
        5,
        6,
        7,
        8,
        9,
        10,
        11,
        12
      ],
      "name": "DAB.obj.cleaner.materialmerger.gles"
    },
    {
      "mesh": 0,
      "name": "Object_2"
    },
    {
      "mesh": 1,
      "name": "Object_3"
    },
    {
      "mesh": 2,
      "name": "Object_4"
    },
    {
      "mesh": 3,
      "name": "Object_5"
    },
    {
      "mesh": 4,
      "name": "Object_6"
    },
    {
      "mesh": 5,
      "name": "Object_7"
    },
    {
      "mesh": 6,
      "name": "Object_8"
    },
    {
      "mesh": 7,
      "name": "Object_9"
    },
    {
      "mesh": 8,
      "name": "Object_10"
    },
    {
      "mesh": 9,
      "name": "Object_11"
    },
    {
      "mesh": 10,
      "name": "Object_12"
    }
  ],
  "samplers": [
    {
      "magFilter": 9729,
      "minFilter": 9987,
      "wrapS": 10497,
      "wrapT": 10497
    }
  ],
  "scene": 0,
  "scenes": [
    {
      "name": "Sketchfab_Scene",
      "nodes": [
        0
      ]
    }
  ],
  "textures": [
    {
      "sampler": 0,
      "source": 0
    },
    {
      "sampler": 0,
      "source": 1
    },
    {
      "sampler": 0,
      "source": 2
    },
    {
      "sampler": 0,
      "source": 3
    },
    {
      "sampler": 0,
      "source": 4
    }
  ]
}
